<?xml version="1.0" encoding="UTF-8"?>
<!DOCTYPE svg PUBLIC "-//W3C//DTD SVG 1.1//EN" "http://www.w3.org/Graphics/SVG/1.1/DTD/svg11.dtd">
<svg xmlns="http://www.w3.org/2000/svg" version="1.1" width="512px" height="512px" style="shape-rendering:geometricPrecision; text-rendering:geometricPrecision; image-rendering:optimizeQuality; fill-rule:evenodd; clip-rule:evenodd" xmlns:xlink="http://www.w3.org/1999/xlink">
<g><path style="opacity:0.971" fill="#010101" d="M 236.5,6.5 C 285.902,2.34135 329.902,15.508 368.5,46C 395.28,69.8088 412.447,99.3088 420,134.5C 428.377,134.402 435.71,137.069 442,142.5C 443.893,145.618 445.226,148.951 446,152.5C 446.667,166.833 446.667,181.167 446,195.5C 444.278,203.556 439.444,208.723 431.5,211C 426.5,211.333 421.5,211.667 416.5,212C 410.188,221.834 401.522,228.834 390.5,233C 381.534,236.033 372.367,238.2 363,239.5C 352.898,254.603 340.398,267.436 325.5,278C 320.002,280.915 314.668,284.081 309.5,287.5C 387.11,307.949 442.61,354.616 476,427.5C 485.769,450.574 491.436,474.574 493,499.5C 492.215,501.286 491.049,502.786 489.5,504C 333.5,504.667 177.5,504.667 21.5,504C 17.7973,500.604 16.6306,496.437 18,491.5C 28.7473,416.793 65.5806,358.959 128.5,318C 151.222,304.035 175.555,293.869 201.5,287.5C 151.159,259.833 127.659,217.166 131,159.5C 139.592,105.581 169.758,70.0812 221.5,53C 278.07,40.4069 323.903,56.9069 359,102.5C 382.842,139.581 387.008,178.748 371.5,220C 379.497,219.333 386.831,216.666 393.5,212C 389.98,211.496 387.48,209.663 386,206.5C 385.333,184.5 385.333,162.5 386,140.5C 386.935,137.898 388.768,136.398 391.5,136C 395.152,135.501 398.818,135.335 402.5,135.5C 386.529,75.6996 348.196,39.1996 287.5,26C 230.055,15.8161 181.222,31.6494 141,73.5C 126.306,91.5525 115.806,111.886 109.5,134.5C 113.87,135.203 118.204,136.036 122.5,137C 123.701,137.903 124.535,139.069 125,140.5C 125.978,163.255 125.645,185.922 124,208.5C 123.097,209.701 121.931,210.535 120.5,211C 106.833,211.667 93.1667,211.667 79.5,211C 71.5557,208.723 66.7224,203.556 65,195.5C 64.0633,179.779 64.3967,164.112 66,148.5C 67.3782,143.792 70.2115,140.292 74.5,138C 80.2372,136.179 86.0705,135.012 92,134.5C 112.091,60.0515 160.258,17.3848 236.5,6.5 Z"/></g>
<g><path style="opacity:1" fill="#f5dbcc" d="M 279.5,67.5 C 334.608,103.977 352.108,153.977 332,217.5C 331.583,218.756 330.75,219.423 329.5,219.5C 321.574,206.796 310.241,202.629 295.5,207C 280.749,215.341 276.249,227.508 282,243.5C 286.81,251.8 293.976,256.8 303.5,258.5C 293.876,267.315 283.21,274.648 271.5,280.5C 224.485,286.318 187.985,269.318 162,229.5C 139.357,187.324 141.69,146.657 169,107.5C 197.894,72.6982 234.727,59.3649 279.5,67.5 Z"/></g>
<g><path style="opacity:1" fill="#eec8ba" d="M 279.5,67.5 C 327.921,81.0906 356.088,112.757 364,162.5C 365.536,183.56 361.703,203.56 352.5,222.5C 345.524,223.664 338.524,223.831 331.5,223C 330.695,221.887 330.028,220.721 329.5,219.5C 330.75,219.423 331.583,218.756 332,217.5C 352.108,153.977 334.608,103.977 279.5,67.5 Z"/></g>
<g><path style="opacity:1" fill="#fedf75" d="M 108.5,152.5 C 108.5,166.5 108.5,180.5 108.5,194.5C 100.167,194.5 91.8333,194.5 83.5,194.5C 82.8826,194.389 82.3826,194.056 82,193.5C 81.3333,180.167 81.3333,166.833 82,153.5C 90.7489,152.516 99.5822,152.183 108.5,152.5 Z"/></g>
<g><path style="opacity:1" fill="#a6924d" d="M 108.5,152.5 C 109.496,166.657 109.829,180.99 109.5,195.5C 100.651,195.826 91.9839,195.493 83.5,194.5C 91.8333,194.5 100.167,194.5 108.5,194.5C 108.5,180.5 108.5,166.5 108.5,152.5 Z"/></g>
<g><path style="opacity:1" fill="#a6924d" d="M 402.5,152.5 C 402.5,166.5 402.5,180.5 402.5,194.5C 410.833,194.5 419.167,194.5 427.5,194.5C 419.016,195.493 410.349,195.826 401.5,195.5C 401.171,180.99 401.504,166.657 402.5,152.5 Z"/></g>
<g><path style="opacity:1" fill="#fedf75" d="M 402.5,152.5 C 411.418,152.183 420.251,152.516 429,153.5C 429.667,166.833 429.667,180.167 429,193.5C 428.617,194.056 428.117,194.389 427.5,194.5C 419.167,194.5 410.833,194.5 402.5,194.5C 402.5,180.5 402.5,166.5 402.5,152.5 Z"/></g>
<g><path style="opacity:1" fill="#f7da73" d="M 301.5,221.5 C 311.992,219.834 316.826,224.167 316,234.5C 313.747,240.926 309.247,243.426 302.5,242C 296.673,238.867 294.507,234.034 296,227.5C 297.36,224.977 299.193,222.977 301.5,221.5 Z"/></g>
<g><path style="opacity:1" fill="#ebc6b7" d="M 271.5,280.5 C 283.21,274.648 293.876,267.315 303.5,258.5C 317.01,258.467 326.343,252.3 331.5,240C 334.833,239.333 338.167,239.333 341.5,240C 323.751,263.045 300.417,276.545 271.5,280.5 Z"/></g>
<g><path style="opacity:1" fill="#f0d6c8" d="M 235.5,298.5 C 248.504,298.333 261.504,298.5 274.5,299C 280.27,299.462 285.937,300.462 291.5,302C 279.642,311.358 267.642,320.525 255.5,329.5C 243.19,320.518 231.19,311.185 219.5,301.5C 224.943,300.35 230.277,299.35 235.5,298.5 Z"/></g>
<g><path style="opacity:1" fill="#817481" d="M 193.5,306.5 C 196.32,306.248 198.986,306.748 201.5,308C 215.38,319.387 229.38,330.554 243.5,341.5C 233.896,353.94 223.73,365.94 213,377.5C 200.58,356.329 188.414,334.996 176.5,313.5C 182.152,310.954 187.819,308.621 193.5,306.5 Z"/></g>
<g><path style="opacity:1" fill="#817481" d="M 311.5,306.5 C 319.493,307.749 327.16,310.082 334.5,313.5C 322.586,334.996 310.42,356.329 298,377.5C 287.27,365.94 277.104,353.94 267.5,341.5C 282.186,329.81 296.852,318.143 311.5,306.5 Z"/></g>
<g><path style="opacity:1" fill="#89c7fc" d="M 235.5,486.5 C 169.002,487.499 102.335,487.832 35.5,487.5C 49.0144,410.439 90.6811,354.439 160.5,319.5C 175.743,344.309 190.243,369.643 204,395.5C 206.756,400.447 210.59,401.613 215.5,399C 217.667,396.833 219.833,394.667 222,392.5C 218.731,411.178 215.065,429.845 211,448.5C 210.333,451.833 210.333,455.167 211,458.5C 219.003,468.001 227.17,477.334 235.5,486.5 Z"/></g>
<g><path style="opacity:1" fill="#5fb5fc" d="M 442.5,488.5 C 442.5,488.167 442.5,487.833 442.5,487.5C 443.596,483.587 443.762,479.587 443,475.5C 430.847,423.395 404.68,379.895 364.5,345C 357.79,339.653 350.79,334.82 343.5,330.5C 345.087,326.317 347.421,322.65 350.5,319.5C 420.61,354.693 462.277,411.026 475.5,488.5C 464.5,488.5 453.5,488.5 442.5,488.5 Z"/></g>
<g><path style="opacity:1" fill="#89c8fd" d="M 343.5,330.5 C 350.79,334.82 357.79,339.653 364.5,345C 404.68,379.895 430.847,423.395 443,475.5C 443.762,479.587 443.596,483.587 442.5,487.5C 386.664,487.832 330.998,487.499 275.5,486.5C 283.83,477.334 291.997,468.001 300,458.5C 300.667,455.167 300.667,451.833 300,448.5C 295.935,429.845 292.269,411.178 289,392.5C 291.815,396.159 295.315,398.826 299.5,400.5C 302.655,399.85 305.155,398.183 307,395.5C 318.687,373.447 330.854,351.781 343.5,330.5 Z"/></g>
<g><path style="opacity:1" fill="#827582" d="M 257.5,355.5 C 264.611,387.555 271.278,419.722 277.5,452C 277.333,453.5 277.167,455 277,456.5C 269.3,465.031 261.467,473.364 253.5,481.5C 244.867,472.698 236.367,463.698 228,454.5C 227.833,453 227.667,451.5 227.5,450C 233.28,421.489 239.113,392.989 245,364.5C 248.517,361.283 251.684,357.783 254.5,354C 255.998,353.415 256.998,353.915 257.5,355.5 Z"/></g>
<g><path style="opacity:1" fill="#655b65" d="M 257.5,355.5 C 260.101,358.604 262.934,361.604 266,364.5C 272.092,392.961 277.926,421.461 283.5,450C 283.333,451.5 283.167,453 283,454.5C 274.167,464 265.333,473.5 256.5,483C 255.002,483.585 254.002,483.085 253.5,481.5C 261.467,473.364 269.3,465.031 277,456.5C 277.167,455 277.333,453.5 277.5,452C 271.278,419.722 264.611,387.555 257.5,355.5 Z"/></g>
<g><path style="opacity:1" fill="#020202" d="M 103.5,387.5 C 125.924,387.021 148.258,387.521 170.5,389C 171.333,389.833 172.167,390.667 173,391.5C 173.959,403.929 173.626,416.263 172,428.5C 171.097,429.701 169.931,430.535 168.5,431C 146.833,431.667 125.167,431.667 103.5,431C 102.333,429.833 101.167,428.667 100,427.5C 99.3333,415.5 99.3333,403.5 100,391.5C 101.376,390.295 102.542,388.962 103.5,387.5 Z"/></g>
<g><path style="opacity:1" fill="#ebeff0" d="M 115.5,403.5 C 129.5,403.5 143.5,403.5 157.5,403.5C 157.5,407.5 157.5,411.5 157.5,415.5C 143.5,415.5 129.5,415.5 115.5,415.5C 115.5,411.5 115.5,407.5 115.5,403.5 Z"/></g>
<g><path style="opacity:1" fill="#77addb" d="M 235.5,486.5 C 236.289,486.783 236.956,487.283 237.5,488C 169.999,488.832 102.665,488.665 35.5,487.5C 102.335,487.832 169.002,487.499 235.5,486.5 Z"/></g>
<g><path style="opacity:1" fill="#77addb" d="M 275.5,486.5 C 330.998,487.499 386.664,487.832 442.5,487.5C 442.5,487.833 442.5,488.167 442.5,488.5C 386.166,488.667 329.832,488.5 273.5,488C 274.044,487.283 274.711,486.783 275.5,486.5 Z"/></g>
</svg>
